<svg width="95" height="28" viewBox="0 0 95 28" fill="none" xmlns="http://www.w3.org/2000/svg">
<g clip-path="url(#clip0_2536_3622)">
<g clip-path="url(#clip1_2536_3622)">
<path fill-rule="evenodd" clip-rule="evenodd" d="M27.3995 2.15785C26.3677 0.192253 22.9741 0.809653 20.0411 1.59505C7.29135 6.29345 2.78055 15.8415 1.19575 21.5297C1.11735 21.6725 1.06975 21.8363 1.06555 22.0113C0.43835 24.4249 0.35295 26.0335 0.35155 26.0867C0.32775 26.6649 0.77715 27.1535 1.35535 27.1773C1.37075 27.1787 1.38615 27.1787 1.40155 27.1787C1.96015 27.1787 2.42495 26.7377 2.45015 26.1735C2.45715 26.0027 2.52155 24.8281 2.91775 23.0725C6.42895 22.9241 9.96395 21.6165 13.4359 19.1749C13.7075 18.9845 13.8727 18.6765 13.8825 18.3461C13.8923 18.0143 13.7439 17.6979 13.4849 17.4935L11.8833 16.2251L17.1389 15.7099C17.3531 15.6889 17.5547 15.6035 17.7185 15.4635C17.8319 15.3683 20.5073 13.0779 23.0525 10.4081C26.9235 6.34805 28.2633 3.80425 27.3995 2.15785Z" fill="#335CFF"/>
<path fill-rule="evenodd" clip-rule="evenodd" d="M21.1785 25.0801H12.2045C11.6249 25.0801 11.1545 25.5505 11.1545 26.1301C11.1545 26.7097 11.6249 27.1801 12.2045 27.1801H21.1785C21.7581 27.1801 22.2285 26.7097 22.2285 26.1301C22.2285 25.5505 21.7581 25.0801 21.1785 25.0801Z" fill="#335CFF"/>
</g>
<path d="M43.336 23.615C42.7687 23.615 42.3623 23.4923 42.117 23.247C41.8717 22.9863 41.749 22.5033 41.749 21.798C41.749 21.3227 41.795 20.7477 41.887 20.073C41.979 19.3983 42.14 18.3787 42.37 17.014C42.4007 16.83 42.5233 16.0863 42.738 14.783C42.9527 13.4643 43.1443 12.0843 43.313 10.643C43.4663 9.41633 43.543 8.49633 43.543 7.883C43.543 7.193 43.29 6.848 42.784 6.848C42.4007 6.848 41.9177 7.055 41.335 7.469C40.7677 7.86767 40.1543 8.51167 39.495 9.401C39.2803 9.69233 39.0427 9.838 38.782 9.838C38.5673 9.838 38.3757 9.73833 38.207 9.539C38.0537 9.32433 37.977 9.08667 37.977 8.826C37.977 8.56533 38.023 8.32 38.115 8.09C38.207 7.84467 38.3757 7.55333 38.621 7.216C39.3723 6.18867 40.208 5.399 41.128 4.847C42.048 4.27967 43.014 3.996 44.026 3.996C44.8693 3.996 45.498 4.25667 45.912 4.778C46.3413 5.29933 46.556 6.05833 46.556 7.055C46.556 7.94433 46.4333 9.23233 46.188 10.919C46.9547 8.64967 47.9283 6.93233 49.109 5.767C50.2897 4.58633 51.6773 3.996 53.272 3.996C54.5293 3.996 55.4723 4.35633 56.101 5.077C56.745 5.78233 57.067 6.733 57.067 7.929C57.067 8.60367 56.9673 9.424 56.768 10.39L55.365 16.968C55.2117 17.7347 55.135 18.394 55.135 18.946C55.135 19.59 55.2807 20.073 55.572 20.395C55.8787 20.717 56.3003 20.878 56.837 20.878C57.343 20.878 57.8337 20.7093 58.309 20.372C58.7997 20.0347 59.3747 19.475 60.034 18.693C60.218 18.4783 60.425 18.371 60.655 18.371C60.8543 18.371 61.0077 18.463 61.115 18.647C61.2377 18.831 61.299 19.084 61.299 19.406C61.299 20.004 61.1533 20.4793 60.862 20.832C60.0647 21.798 59.275 22.5033 58.493 22.948C57.711 23.3927 56.8907 23.615 56.032 23.615C54.7287 23.615 53.709 23.2317 52.973 22.465C52.237 21.683 51.869 20.6403 51.869 19.337C51.869 18.831 51.9073 18.279 51.984 17.681C52.076 17.083 52.2217 16.324 52.421 15.404L53.341 11.195C53.3717 11.057 53.4253 10.8117 53.502 10.459C53.5787 10.1063 53.64 9.77667 53.686 9.47C53.732 9.148 53.755 8.83367 53.755 8.527C53.755 8.03633 53.617 7.64533 53.341 7.354C53.065 7.06267 52.674 6.917 52.168 6.917C51.248 6.917 50.328 7.40767 49.408 8.389C48.488 9.37033 47.637 10.9573 46.855 13.15C46.073 15.3273 45.4597 18.118 45.015 21.522C44.9077 22.304 44.7467 22.8483 44.532 23.155C44.3327 23.4617 43.934 23.615 43.336 23.615ZM70.7012 16.439C70.9005 16.439 71.0538 16.5387 71.1611 16.738C71.2685 16.9373 71.3222 17.1903 71.3222 17.497C71.3222 18.233 71.0998 18.67 70.6552 18.808C69.7352 19.13 68.7231 19.314 67.6191 19.36C67.3278 20.648 66.7528 21.683 65.8941 22.465C65.0355 23.2317 64.0618 23.615 62.9731 23.615C62.0531 23.615 61.2635 23.3927 60.6041 22.948C59.9601 22.5033 59.4695 21.913 59.1321 21.177C58.7948 20.441 58.6261 19.6437 58.6261 18.785C58.6261 17.6197 58.8485 16.5847 59.2931 15.68C59.7378 14.76 60.3511 14.047 61.1331 13.541C61.9151 13.0197 62.7815 12.759 63.7321 12.759C64.8975 12.759 65.8328 13.1653 66.5381 13.978C67.2588 14.7753 67.6805 15.7643 67.8031 16.945C68.5238 16.899 69.3825 16.7457 70.3792 16.485C70.5018 16.4543 70.6092 16.439 70.7012 16.439ZM63.1571 21.177C63.6478 21.177 64.0695 20.9777 64.4221 20.579C64.7901 20.1803 65.0355 19.6053 65.1581 18.854C64.6828 18.532 64.3148 18.1103 64.0541 17.589C63.8088 17.0677 63.6861 16.5157 63.6861 15.933C63.6861 15.6877 63.7091 15.4423 63.7551 15.197H63.6401C63.0268 15.197 62.5131 15.496 62.0991 16.094C61.7005 16.6767 61.5011 17.5047 61.5011 18.578C61.5011 19.4213 61.6621 20.0653 61.9841 20.51C62.3215 20.9547 62.7125 21.177 63.1571 21.177ZM79.7301 18.371C79.9294 18.371 80.0828 18.463 80.1901 18.647C80.3128 18.831 80.3741 19.084 80.3741 19.406C80.3741 20.0193 80.2284 20.4947 79.9371 20.832C79.2778 21.6447 78.5571 22.3117 77.7751 22.833C76.9931 23.3543 76.0961 23.615 75.0841 23.615C71.9561 23.615 70.3921 21.4147 70.3921 17.014C70.3921 16.3393 70.4151 15.657 70.4611 14.967H69.5641C69.1041 14.967 68.7898 14.8827 68.6211 14.714C68.4678 14.5453 68.3911 14.277 68.3911 13.909C68.3911 13.0503 68.7361 12.621 69.4261 12.621H70.7371C70.9978 10.9343 71.3964 9.39333 71.9331 7.998C72.4698 6.60267 73.1138 5.491 73.8651 4.663C74.6318 3.835 75.4521 3.421 76.3261 3.421C76.9701 3.421 77.4761 3.70467 77.8441 4.272C78.2121 4.83933 78.3961 5.55233 78.3961 6.411C78.3961 8.78767 77.3994 10.8577 75.4061 12.621H77.9821C78.2274 12.621 78.4038 12.6747 78.5111 12.782C78.6184 12.8893 78.6721 13.0887 78.6721 13.38C78.6721 14.438 77.8058 14.967 76.0731 14.967H73.2671C73.2364 15.7337 73.2211 16.3317 73.2211 16.761C73.2211 18.3557 73.4051 19.475 73.7731 20.119C74.1564 20.763 74.7544 21.085 75.5671 21.085C76.2264 21.085 76.8091 20.8857 77.3151 20.487C77.8211 20.0883 78.4191 19.4903 79.1091 18.693C79.2931 18.4783 79.5001 18.371 79.7301 18.371ZM75.7051 5.629C75.4751 5.629 75.2144 5.92033 74.9231 6.503C74.6471 7.07033 74.3788 7.86767 74.1181 8.895C73.8728 9.907 73.6658 11.034 73.4971 12.276C74.4018 11.494 75.0764 10.62 75.5211 9.654C75.9811 8.67267 76.2111 7.78333 76.2111 6.986C76.2111 6.08133 76.0424 5.629 75.7051 5.629ZM88.2994 18.371C88.4987 18.371 88.652 18.463 88.7594 18.647C88.882 18.831 88.9434 19.084 88.9434 19.406C88.9434 20.0193 88.7977 20.4947 88.5064 20.832C87.939 21.522 87.134 22.1583 86.0914 22.741C85.064 23.3237 83.96 23.615 82.7794 23.615C81.1694 23.615 79.9197 23.178 79.0304 22.304C78.141 21.43 77.6964 20.234 77.6964 18.716C77.6964 17.658 77.9187 16.6767 78.3634 15.772C78.808 14.852 79.4214 14.1237 80.2034 13.587C81.0007 13.0503 81.8977 12.782 82.8944 12.782C83.7837 12.782 84.4967 13.0503 85.0334 13.587C85.57 14.1083 85.8384 14.8213 85.8384 15.726C85.8384 16.784 85.455 17.6963 84.6884 18.463C83.937 19.2143 82.6567 19.8123 80.8474 20.257C81.2307 20.9623 81.959 21.315 83.0324 21.315C83.7224 21.315 84.5044 21.0773 85.3784 20.602C86.2677 20.1113 87.0344 19.475 87.6784 18.693C87.8624 18.4783 88.0694 18.371 88.2994 18.371ZM82.5034 15.036C81.936 15.036 81.453 15.3657 81.0544 16.025C80.671 16.6843 80.4794 17.4817 80.4794 18.417V18.463C81.384 18.2483 82.097 17.9263 82.6184 17.497C83.1397 17.0677 83.4004 16.5693 83.4004 16.002C83.4004 15.7107 83.316 15.4807 83.1474 15.312C82.994 15.128 82.7794 15.036 82.5034 15.036ZM90.8887 24.121C90.0913 24.121 89.478 23.937 89.0487 23.569C88.6347 23.201 88.4277 22.787 88.4277 22.327C88.4277 21.9283 88.5733 21.5833 88.8647 21.292C89.156 21.0007 89.5853 20.855 90.1527 20.855C90.352 20.855 90.582 20.878 90.8427 20.924C91.1187 20.9547 91.3257 20.9777 91.4637 20.993C91.4483 20.5943 91.3563 20.2187 91.1877 19.866C91.0343 19.5133 90.835 19.176 90.5897 18.854C90.3443 18.5167 90.1143 18.2253 89.8997 17.98C89.4243 18.8847 88.949 19.636 88.4737 20.234C88.0137 20.832 87.5077 21.3993 86.9557 21.936C86.6797 22.212 86.3883 22.35 86.0817 22.35C85.8363 22.35 85.637 22.2657 85.4837 22.097C85.3303 21.913 85.2537 21.6907 85.2537 21.43C85.2537 21.1233 85.361 20.8397 85.5757 20.579L85.8747 20.211C86.718 19.1683 87.3543 18.3097 87.7837 17.635C88.0597 17.1903 88.3357 16.6613 88.6117 16.048C88.903 15.4347 89.2787 14.599 89.7387 13.541C90.03 12.8663 90.6357 12.529 91.5557 12.529C91.985 12.529 92.284 12.5673 92.4527 12.644C92.6213 12.7207 92.7057 12.8433 92.7057 13.012C92.7057 13.104 92.675 13.2497 92.6137 13.449C92.5523 13.6483 92.468 13.8477 92.3607 14.047C92.0847 14.599 91.9467 15.0667 91.9467 15.45C91.9467 15.68 92.0233 15.933 92.1767 16.209C92.3453 16.485 92.5983 16.83 92.9357 17.244C93.4263 17.888 93.7943 18.44 94.0397 18.9C94.3003 19.3447 94.4307 19.8353 94.4307 20.372C94.4307 21.016 94.2773 21.6293 93.9707 22.212C93.6793 22.7793 93.2653 23.2393 92.7287 23.592C92.192 23.9447 91.5787 24.121 90.8887 24.121Z" fill="#FFFFFF"/>
</g>
<defs>
<clipPath id="clip0_2536_3622">
<rect width="95" height="28" fill="#FFFFFF"/>
</clipPath>
<clipPath id="clip1_2536_3622">
<rect width="28" height="28" fill="#FFFFFF"/>
</clipPath>
</defs>
</svg>
